/* XPM */
static char *icon_linux[] = {
/* columns rows colors chars-per-pixel */
"48 48 158 2 ",
"   c None",
".  c #536376",
"X  c #55667A",
"o  c #5C6B7E",
"O  c #5E6E81",
"+  c #5F7083",
"@  c #606F81",
"#  c #627285",
"$  c #687687",
"%  c #64768A",
"&  c #6B7A8D",
"*  c #6C7E92",
"=  c #6F8295",
"-  c #738292",
";  c #788594",
":  c #7C8896",
">  c #738699",
",  c #768A9C",
"<  c #7B8C9E",
"1  c #7D91A3",
"2  c #818D9B",
"3  c #84949C",
"4  c #8297A6",
"5  c #8A95A2",
"6  c #879FA4",
"7  c #8C9DA6",
"8  c #8399A9",
"9  c #899FAE",
"0  c #939EA8",
"q  c #8297B1",
"w  c #859AB3",
"e  c #8B9DB4",
"r  c #8D9FB9",
"t  c #8DA2A7",
"y  c #8DA5AC",
"u  c #8DA2B4",
"i  c #8CA1BA",
"p  c #91A2B3",
"a  c #9AA6B0",
"s  c #93AAB4",
"d  c #9CAFB3",
"f  c #94A5BA",
"g  c #96AAB9",
"h  c #9BACBD",
"j  c #97B0B6",
"k  c #97B1B8",
"l  c #9CB4BE",
"z  c #A2AFB7",
"x  c #A5B2B5",
"c  c #A4B6BC",
"v  c #ACB9BD",
"b  c #9FB8C2",
"n  c #A2B4C1",
"m  c #A4BAC5",
"M  c #ACBCC4",
"N  c #ACBEC9",
"B  c #ABC0C6",
"V  c #A7C0C9",
"C  c #ABC4CC",
"Z  c #B4C2C6",
"A  c #B3C4CC",
"S  c #B4C9CE",
"D  c #BECBCE",
"F  c #AFC9D1",
"G  c #B3CCD3",
"H  c #BCCCD2",
"J  c #B6D0D7",
"K  c #BCD0D5",
"L  c #B7D0D8",
"P  c #BCD4DC",
"I  c #BED8DE",
"U  c #C1CFD4",
"Y  c #C3D2D6",
"T  c #C8D4D7",
"R  c #C4D3D8",
"E  c #CBD6DA",
"W  c #C2D8DF",
"Q  c #CEDADD",
"!  c #D1DBDE",
"~  c #C4DCE2",
"^  c #CBDFE5",
"/  c #D5DFE2",
"(  c #CAE1E7",
")  c #CDE3E9",
"_  c #D6E2E4",
"`  c #DBE3E5",
"'  c #D1E5EB",
"]  c #DDE6E8",
"[  c #D4E9EE",
"{  c #DBEAEE",
"}  c #D7EBF1",
"|  c #DCEDF2",
" . c #DEF1F6",
".. c #E4EBED",
"X. c #E2EFF2",
"o. c #E8EEF0",
"O. c #E5F2F6",
"+. c #ECF4F5",
"@. c #E5F4F8",
"#. c #E6F4F8",
"$. c #E7F4F8",
"%. c #E6F4F8",
"&. c #E9F6F8",
"*. c #EBF7F9",
"=. c #ECF7F9",
"-. c #EFF7F9",
";. c #EDF7FA",
":. c #EEF7FA",
">. c #E9F6F9",
",. c #E9F9FB",
"<. c #EBF8FB",
"1. c #EFF9FB",
"2. c #EFFBFC",
"3. c #EFFCFE",
"4. c #EFF8F9",
"5. c #F2F7F7",
"6. c #F3F7F7",
"7. c #F1F7F9",
"8. c #F0F8FA",
"9. c #F2F8FA",
"0. c #F2F9FA",
"q. c #F2F9FB",
"w. c #F3FAFB",
"e. c #F6F8F8",
"r. c #F5FAFB",
"t. c #F6FAFB",
"y. c #F7FAFB",
"u. c #F3FBFC",
"i. c #F5F9FC",
"p. c #F6FBFC",
"a. c #F7FBFD",
"s. c #F3FCFE",
"d. c #F6FCFD",
"f. c #F7FDFD",
"g. c #F4FDFE",
"h. c #F6FFFF",
"j. c #F5FAFB",
"k. c #F9FBFB",
"l. c #F9FBFC",
"z. c #F8FCFD",
"x. c #F9FCFD",
"c. c #FAFCFD",
"v. c #FAFDFD",
"b. c #FBFDFD",
"n. c #F8FDFE",
"m. c #F8FEFE",
"M. c #F9FFFF",
"N. c #FAFEFF",
"B. c #FCFDFD",
"V. c #FCFDFE",
"C. c #FCFEFE",
"Z. c #FDFEFE",
"A. c #FCFFFF",
"S. c #FEFEFE",
"D. c #FEFEFF",
"F. c #FEFFFF",
"G. c white",
"H. c #FBFDFD",
/* pixels */
"                                                                                                ",
"                                                                                                ",
"            * G                                                                                 ",
"            % b ~ S                                                                             ",
"            # g W { B                                                                           ",
"            # 9 I  .z.m                                                                         ",
"            o 1 P | Z.X.G                                                                       ",
"            o > L [ Z.0.| P s                                                                   ",
"            # * G ' Z.r.O.O.) k                                                                 ",
"              % C ) z.z.#.#.O.' C                                                               ",
"              # V ( g.z.#.#.#.O.| S                                                             ",
"              o m ^ 3.Z.#.#.#.#.O.X.~ d                                                         ",
"              X l ~ ,.Z.#.#.#.#.#.#.O.) l                                                       ",
"              @ g W @.Z.*.#.#.#.#.#.#.O.[ C                                                     ",
"              o u I  .Z.:.#.#.#.#.#.#.#.O.| G                                                   ",
"              $ 8 P | Z.0.#.#.#.#.#.#.#.#.O.X.~ j                                               ",
"                < P [ z.a.#.#.#.#.#.#.#.#.#.#.O.' y                                             ",
"                - G ' z.a.#.#.#.#.#.#.#.#.#.#.#.O.} S                                           ",
"                & G ) g.z.#.#.#.#.#.#.#.#.#.#.#.#.#.| J                                         ",
"                & C ( u.z.#.#.#.#.#.#.#.#.#.#.#.#.#.#.O.W l                                     ",
"                # m ^ 1.Z.#.#.#.#.#.#.#.#.#.#.#.#.#.#.#.#.) t                                   ",
"                + l ~ *.Z.#.#.#.#.#.#.#.#.#.#.#.#.#.#.#.#.O.| F                                 ",
"                o s ~ #.Z.#.#.#.#.#.#.#.#.#.#.#.#.#.#.#.#.#.O.| K 6                             ",
"                o 9 I  .Z.#.#.#.#.#.#.#.#.#.#.#.#.#.#.#.#.#.#.#.O.( c                           ",
"                o 4 I  .Z.:.#.#.#.#.#.#.#.#.#.#.#.#.#.#.#.#.#.#.#.O.' l                         ",
"                & < P | Z.0.#.#.#.#.#.#.#.#.#.#.#.#.#.#.#.#.#.#.#.#.O.{ V                       ",
"                  > G [ z.a.#.#.#.#.#.#.#.#.#.#.#.#.#.#.#.#.#.#.O.O.O.O.0.r.c                   ",
"                  * G ) g.z.#.#.#.#.#.#.#.#.#.#.#.#.#.#.#.#.O.O.O.:.r.Z.r.+.` Y                 ",
"                  % F ( s.Z.#.#.#.#.#.#.#.#.#.#.#.#.#.O.O.O.&.0.z.l.5...! T Y H S               ",
"                  O C ^ 2.Z.#.#.#.#.#.#.#.#.#.#.#.#.#.X.&.k.Z.r.o.` E Y Y H N h f               ",
"                  & m ~ ,.Z.*.#.#.#.#.#.#.#.#.#.#.#.#.O.^ / ..! E Y H A n g e i f               ",
"                  O l ~ #.Z.:.#.#.#.#.O.O.O.O.:.#.#.#.#.| B v Y H N h i w q                     ",
"                  @ u I O.Z.:.#.#.#.O.O.=.r.g.z.#.#.#.#.O.' 6 h f w w r                         ",
"                  $ 8 I | Z.1.O.O.+.=.z.z.r.o.Z.0.#.#.#.#.O.G , w                               ",
"                    < P } Z.=.+.r.Z.z.=.] ! _ 7.Z.*.#.#.#.O.{ y                                 ",
"                    = J [ Z.z.z.5.../ E Y H E { z.r.#.#.#.#.O.W 3                               ",
"                    & G ' k.+.] ! Y Y H A c D / O.Z.*.#.#.#.O.| c                               ",
"                    % C ^ / E Y U S m h e 7 Z Y ] k.g.#.O.O.O.7.=.x                             ",
"                    + m R Y H C n f w w < 2 z D Q o.Z.+.&.7.z.k.=.]                             ",
"                    o n G m g e w q       - 5 M U _ 7.z.Z.r..._ E Y Y                           ",
"                    . p f w w               : a A E o.+.] ! T Y K A n                           ",
"                    # w w                   ; 3 v H ! E Y Y H N h e w                           ",
"                                              ; 0 Z Y Y A h f w w f                             ",
"                                              : 2 c m h e w w                                   ",
"                                                - e e w i                                       ",
"                                                  e                                             ",
"                                                                                                ",
"                                                                                                "
};
